<svg xmlns="http://www.w3.org/2000/svg" width="313" height="30" viewBox="0 0 313 30">
    <defs>
        <path id="a" d="M0 0h312.803v30H0z"/>
    </defs>
    <g fill="none" fill-rule="evenodd">
        <path fill="#000056" d="M90.01 15.45c.12 1.08.21 2.04.36 3.27 32.658-.24 65.257-.27 97.855-1.47.54.6 1.02 1.17 1.498 1.68.21.66-.27 1.02-.45 1.44-8.059-.69-15.999.03-23.939-.15-7.16-.15-14.292-.21-21.452-.03-6.802.18-13.603.09-20.404.51-1.349.09-2.577-.3-3.895-.69-1.948-.6-4.075-.3-6.113-.21-5.423.18-10.876.45-16.329.24-2.067-.06-4.165-.66-6.502-.06.51 2.25 1.858 4.56.09 6.9-.839 1.14-1.528 2.4-2.876 3.12-2.727-2.25-1.738-5.04-1.019-8.07-4.344 1.11-8.24-.09-12.194-.93-.06-.27-.18-.48-.15-.63.09-.39.27-.78.36-1.08 3.865-.18 7.43-1.95 11.295-1.02 0-.15.03-.27.06-.39-.899-.78-1.798-1.59-2.726-2.37-22.532.06-45.093.93-67.654.6-.39-.99-.45-1.62 0-2.28.659-.48 1.438-.27 2.157-.21 7.91.81 15.82.24 23.7.48 5.393.18 10.756 0 16.12-.03 5.932 0 11.864-.33 17.767-.51 1.648-.06 3.265-.09 4.913-.09.84 0 1.528.42 2.277 1.38.09-1.71-.449-3.09.12-4.23-.18-.84-1.108-1.05-1.078-1.83 1.707-.96 4.374.99 7.43 5.25 5.603.15 10.966.39 16.33.39 7.22.03 14.441-.18 21.662-.21 9.917-.03 19.865-.06 29.812.03 13.453.09 26.936.33 40.388.72 13.004.33 26.038.66 39.04.87 4.225.09 8.45-.21 12.645-.36.479 0 .959 0 1.677-.51.24-3.21 2.068-6.06 3.716-9 1.468-2.61 2.906-5.37 6.651-5.97 1.05 3.12-.33 5.7-1.558 8.34-1.288 2.73-3.356 4.65-6.022 6.27 6.472-2.94 12.104-1.02 17.678 2.25-2.308 2.73-5.094 2.58-8.06 2.04-3.176-.57-6.442-.81-9.378-2.49-.57-.3-.87-.69-1.319-1.14-1.468 1.71-3.535 1.14-5.303 1.2-9.019.36-18.007.03-26.996-.18l-36.313-.9c-5.753-.12-11.536-.51-17.288-.42-9.109.15-18.217-.18-27.355-.06-14.622.21-29.243.24-43.895.36-1.677 0-3.385.09-5.333.18m157.39-4.83c-.21 1.23-.959 1.14-1.738 1.08-7.28-.54-14.562-.09-21.842.03-3.805.06-7.61-.12-11.416-.06-6.801.12-13.602.42-20.404.51-4.764.06-9.528-.06-14.292-.09-3.445 0-6.92-.15-10.396.06-8.15.48-16.33-.39-24.48.33-1.797.18-3.654.06-5.482-.03-4.794-.18-9.498.75-14.262.69-3.086-.03-6.172.6-9.258-.09-2.427-.54-3.026-1.5-2.307-4.08 4.464 1.32 9.078.87 13.662.96 5.154.12 10.307.24 15.46.27 6.472.03 12.914-.03 19.386-.06 6.951-.03 13.902 0 20.823-.12 10.817-.21 21.663.18 32.48.3 6.86.09 13.722-.06 20.583.03 4.284.06 8.569.18 12.854-.03.15 0 .33.18.629.3m2.067 7.47c1.468-.36 2.577-.18 3.745.66 1.049.81 2.427 1.2 3.626 1.8 2.457 1.26 3.655 3.18 3.505 5.88-3.415-.96-7.16-.87-9.647-3.96-.99-1.2-1.768-2.58-1.229-4.38m6.472 3.54c-.21-.36-.48-.57-.929-.3.21.51.51.57.929.3m49.317-.9c-1.588.72-4.644-.15-6.202-1.77-.3-.3-.54-.63-.78-.96-1.707-2.43-1.437-3.75 1.11-5.4 1.947.33 2.756 2.22 4.194 3.3 1.528 1.2 2.127 2.73 1.678 4.83m-7.85-10.332v.042l-.06-.06.06.018m0 0c-.047-1.93.878-3.418 2.067-4.848 1.469-1.71 2.877-3.42 4.644-4.83.69-.57 1.199-.84 1.888.09-.779 1.08-.839 2.34-1.048 3.6-.36 2.31-1.708 4.08-3.356 5.67-.93.93-2.397-.12-2.997 1.14-.66-.057-.77-.665-1.199-.822m-.046.05l-.013-.068.06.06a9.333 9.333 0 0 1-.047.008m0 0c.288 1.614-.748 1.7-1.96 1.642-7.341-.42-14.682.03-22.022-.24-3.596-.15-7.191-.48-10.786-.6-.51 0-1.11.03-1.349-.69.81-.93 1.918-.54 2.816-.45 6.712.78 13.453.87 20.195.84 3.176 0 6.382-.09 9.558.03 1.182.059 2.365-.32 3.548-.532m4.721 2.122c-.03-1.23.899-1.56 1.648-1.98 2.367-1.47 6.022-1.32 8.24.33 1.108.81 1.108 1.62.03 2.34-2.038 1.35-8 .96-9.918-.69M6.327 16.89c-1.139-.45-1.229-1.35-1.049-2.19.15-.66.81-.81 1.588-.57.48 1.02 1.139 2.1-.54 2.76m95.07-8.13c1.827.72 1.947 1.08 1.078 2.79-.599.18-1.018-.12-1.438-.54-.12-.72.03-1.41.36-2.25m4.104.69c.66-.3 1.229-.36 1.798.18.09 1.08-.21 1.92-1.348 2.31-1.229-.75-.69-1.65-.45-2.49m87.1 10.92c-.45-1.23-.09-1.92.958-2.28.9.27 1.079.87.87 1.59-.27.87-.96.87-1.828.69M1.383 13.8c-1.798 1.08-1.828 1.32-.18 2.58.96-.75 1.169-1.5.18-2.58m9.917.18c.57.75 1.229 1.5.51 2.61-1.049.12-1.498-.45-1.618-1.35-.12-.72.03-1.35 1.108-1.26m184.955 5.82c-.24-.9-.18-1.65.899-2.04.87.33 1.108.93.989 1.77-.54.54-1.14.6-1.888.27"/>
    </g>
</svg>
