<?xml version="1.0" encoding="UTF-8"?>
<svg width="107px" height="58px" viewBox="0 0 107 58" version="1.1" xmlns="http://www.w3.org/2000/svg" xmlns:xlink="http://www.w3.org/1999/xlink">
    <!-- Generator: sketchtool 45.2 (43514) - http://www.bohemiancoding.com/sketch -->
    <title>0F185D30-67BD-40CE-A83A-DF98A54DE2A5</title>
    <desc>Created with sketchtool.</desc>
    <defs></defs>
    <g id="Symbols" stroke="none" stroke-width="1" fill="none" fill-rule="evenodd">
        <g id="0-Atom/Illustration/Wheat-Mountain" fill="#10069F">
            <path d="M39.5562725,48.9633018 C38.9118019,49.865842 38.339778,50.7115859 37.8329094,51.493326 C46.1995305,51.6303491 70.9472196,51.2557918 71.3321155,51.4091859 C71.7218238,51.5649958 72.6586227,52.966038 72.2689144,53.2003761 C71.877957,53.4334676 66.1797215,53.2003761 59.6995712,53.0445662 C56.7953126,52.9747222 47.0671924,52.9048783 36.9774966,52.8490688 C35.6133822,55.0721696 34.8597305,56.6075803 34.4840673,57.2255056 C33.5997292,58.6801465 32.7990784,57.3788225 33.078869,56.9138859 C33.9301418,55.5027189 34.7873308,54.1469372 35.6517548,52.8418259 C23.6516103,52.7770652 11.5403216,52.7329465 10.1279203,52.7329465 C7.4724077,52.7329465 0.182863146,53.2888761 0.0567075604,52.8887563 C-0.411691892,51.4091859 2.16388057,51.6422775 2.55483798,51.4091859 C2.94579539,51.1748479 2.55483798,50.9417563 3.02323743,50.4743268 C3.49163688,50.0056507 6.22334249,50.5516085 9.65827181,50.9417563 C12.9730506,51.3169179 28.3450495,51.3301723 36.575377,51.4705128 C37.1628156,50.6129078 37.7537684,49.7776551 38.3486419,48.9633018 L19.2852675,48.9633018 C19.9372952,47.1199478 19.3923891,48.189026 19.0120233,48.9633018 L18.4289866,48.9633018 C17.6247286,48.9632807 16.840978,48.8487923 16.3726218,48.4481754 C16.0882901,48.2049212 15.9764586,47.9835369 15.976457,47.7835741 L106.073116,48.9633018 L39.5562725,48.9633018 C40.1993125,48.0627651 40.914478,47.105684 41.7090119,46.099218 L78.4082797,46.099218 C76.9969726,44.2180604 74.1077992,40.140481 73.9148076,40.0446641 C73.6649946,39.9200162 73.4776348,40.169312 73.2278218,39.7941218 C71.946326,37.8778169 67.0064354,30.8483642 63.7648663,26.1978569 C63.9571794,26.066127 64.1497701,25.9348998 64.3426068,25.8041922 C66.6826192,29.0399974 69.5393322,32.8686852 69.5393322,32.8686852 L71.2268193,35.1771641 C72.5910087,37.0433724 77.0612465,43.6400605 78.6250503,46.099218 L106.073116,46.099218 L106.073116,46.5066845 L15.976457,47.7835741 C15.976457,47.7835699 15.976457,47.7835657 15.976457,47.7835614 L15.976457,46.099218 L20.4521209,46.099218 C21.2704605,44.4767201 22.0127972,42.9763824 21.8974871,42.9763824 C21.647674,42.9763824 21.5227675,43.2880021 21.2729545,43.1633542 C21.0231414,43.0387063 23.0228948,40.6055796 22.835535,40.5432556 C22.6481752,40.4809317 22.4608155,40.8548754 22.2110024,40.7925514 C21.9599403,40.7302275 26.8999932,33.4931711 28.4001205,31.433988 C29.9002478,29.3748049 40.9045123,12.966157 42.5919994,11.0951923 C44.2807356,9.22298099 49.2819927,0.425333099 50.1575874,0.549980986 C51.0331821,0.675875352 52.5333094,4.9799669 53.5962639,6.66520634 C54.6592184,8.3491993 59.8478353,15.0253401 61.8488377,17.7700866 C62.4707266,18.6235101 63.9862455,20.9351806 65.7723673,23.716253 Z M66.2826398,24.5120286 C70.1720415,30.5868368 75.0177325,38.3594246 74.8528556,38.3594246 C74.6833347,38.3594246 69.0433088,30.2863162 65.3377329,25.1357261 C65.652241,24.9263547 65.9672551,24.7184313 66.2826398,24.5120286 Z M64.7844962,24.3686855 C63.3111257,22.3316583 62.2506145,20.9166171 62.161104,20.9523472 C61.9849006,21.0226826 63.2217516,22.9802011 64.3330639,24.6727345 C64.2867588,24.7040193 64.2404875,24.7353116 64.1942497,24.7666119 C62.9363254,23.1223916 61.4552072,21.2474007 61.3479626,21.3898613 C61.2787714,21.4819252 62.3778186,23.071467 63.7916893,25.0399063 C63.6029617,25.168404 63.4147941,25.2970507 63.2271803,25.4258686 C62.5731292,24.4859817 62.0124542,23.6768624 61.5990247,23.0738542 C59.1608494,19.51765 49.8228379,5.10212183 49.020938,5.10212183 C48.0104443,5.10212183 35.7146464,24.3215796 34.5267854,25.9432486 C33.3389244,27.5661641 27.337166,37.1740232 27.087353,37.0493754 C26.83754,36.9247275 28.8997466,33.3061993 26.7113844,36.8000796 C25.4426764,38.8268214 22.9533989,42.9738123 21.0497163,46.099218 L40.523765,46.099218 C39.7925168,47.0250858 39.067715,47.9789251 38.3486419,48.9633018 Z M64.8530761,25.4597852 C65.4834923,26.408424 65.9745001,27.12865 65.9745001,27.12865 C65.9745001,27.12865 65.4561525,26.4290995 64.7662288,25.5181553 C64.7951729,25.4986866 64.8241221,25.4792299 64.8530761,25.4597852 Z M39.5332885,44.877138 C36.8403039,42.1274056 37.8845225,38.892793 38.2729817,37.7223493 C38.661441,36.5519056 39.0873723,36.5618775 39.1748068,37.0554831 C39.2622414,37.5490887 40.288973,38.5549972 40.7723612,40.3362155 C41.2557495,42.1161873 40.001688,45.3545394 39.5332885,44.877138 Z M65.9226639,21.8368486 C64.5174655,18.2569613 66.7432997,15.6842289 67.5589393,14.7580951 C68.3745789,13.8319613 68.7630382,14.0064683 68.6506223,14.495088 C68.5369574,14.9837077 69.0890442,16.3099613 68.8392312,18.1372993 C68.588169,19.9646373 66.1662316,22.4588415 65.9226639,21.8368486 Z M43.14571,40.7729817 C40.1329647,37.8499887 42.4762111,33.0074183 42.9783353,33.0074183 C43.4804595,33.0074183 44.5683953,35.0117563 44.8194574,36.7643056 C45.0705195,38.5181014 43.4692179,41.0858479 43.14571,40.7729817 Z M47.3153395,36.1916732 C45.1394679,34.020307 47.4827142,30.5974761 48.0685258,29.8458493 C48.6543374,29.0942225 49.1564616,27.7579972 49.5748985,27.7579972 C49.9933353,27.7579972 50.4954595,29.4282789 50.3280848,32.1829972 C50.16071,34.938962 47.861181,36.7363845 47.3153395,36.1916732 Z M52.7179212,31.8329859 C51.7523938,31.5924155 51.9135232,29.1044437 52.4768517,27.4590915 C53.0401801,25.812493 55.2510255,23.2447465 55.4933441,23.2846338 C55.7344137,23.3245211 56.0554235,24.8900986 55.5732843,27.6186408 C55.0911451,30.3484296 53.3474501,31.9900423 52.7179212,31.8329859 Z M71.645381,18.5357986 C70.1802276,17.9873479 70.1802276,16.3419958 70.9121798,15.3061718 C71.645381,14.2703479 74.4545287,11.5293408 74.6980964,11.6502493 C74.9429132,11.7724042 75.0640725,12.3819324 74.4545287,15.1852634 C73.8437358,17.9873479 72.5334664,18.867362 71.645381,18.5357986 Z M77.7509367,15.0019063 C76.8353719,14.4534556 77.0789396,13.2343993 78.484138,11.4681387 C79.8880873,9.70063169 83.4291871,6.71531479 83.7951632,7.02070211 C84.1623884,7.32484296 83.6127997,9.21325845 82.3912139,11.6513711 C81.1696282,14.0882373 78.8113931,15.6363641 77.7509367,15.0019063 Z M84.6752546,12.6970423 C87.4057111,14.0594437 89.9637967,6.42102113 89.5341182,6.13557746 C89.1056889,5.85138028 81.8173934,11.2710704 84.6752546,12.6970423 Z M90.6065656,11.8413345 C92.7174858,14.8603063 99.7534701,6.49269366 99.6110767,5.85075704 C99.4674342,5.20882042 88.4631697,8.77499648 90.6065656,11.8413345 Z M86.104435,15.121693 C84.3982119,17.9935803 93.6787664,17.7604887 94.0372481,17.0475028 C94.3944808,16.3345169 87.2473296,13.1958831 86.104435,15.121693 Z M81.9754001,16.9073986 C79.4772697,19.9350958 86.5182503,21.5555183 87.2464553,20.9123352 C87.9734113,20.2679056 83.3243906,15.2720183 81.9754001,16.9073986 Z M75.1879798,20.8652183 C73.7677926,23.2883732 80.5514658,23.8854366 81.2984068,22.8994718 C81.8929618,22.1154366 77.0528341,17.6817113 75.1879798,20.8652183 Z M60.3146109,29.8027211 C58.8944238,32.2258761 65.6780969,32.8229394 66.4250379,31.8369746 C67.019593,31.0529394 62.1794653,26.6192141 60.3146109,29.8027211 Z M50.553666,38.6685514 C50.4649823,41.4743754 56.7115574,38.7720092 56.8976681,37.5504599 C57.0450578,36.5782063 50.6398515,35.9375162 50.553666,38.6685514 Z M68.5499477,24.9886951 C67.4083021,27.5676599 75.5084899,26.9032866 75.7283254,26.113019 C75.9481609,25.3227514 70.1687362,21.3315261 68.5499477,24.9886951 Z M54.9498759,34.3623408 C54.8899207,37.6243761 62.2056956,35.5577141 62.1607293,34.5692563 C62.1082686,33.4299746 55.0023366,31.5664887 54.9498759,34.3623408 Z M57.7656436,28.0030549 C60.9170351,28.8743437 60.7334225,21.2882732 59.7641479,21.0863437 C58.6462345,20.8520056 55.0651646,27.2564141 57.7656436,28.0030549 Z M45.2166601,44.1377268 C45.9448652,47.3187408 52.5474238,43.5543746 52.2651351,42.6058042 C51.9403781,41.5126423 44.5921275,41.4116775 45.2166601,44.1377268 Z"></path>
        </g>
    </g>
</svg>