<svg xmlns="http://www.w3.org/2000/svg" width="313" height="35" viewBox="0 0 313 35">
    <path fill="#000056" fill-rule="evenodd" d="M255.438 6.88c-.12 1.2 1.824 1.32 1.632.024-.12-.768-1.632-.936-1.632-.024zm3.672 6.168c-1.008.048-1.56 1.584-.384 1.704 1.104.12 1.272-1.32.384-1.704zm-95.208.768c.072-1.272-2.28-1.224-1.776.096.336.936 1.68.984 1.776-.096zm19.272 9.336c-.336-1.392-2.208-.912-1.68.336.432 1.032 1.704.768 1.68-.336zm-25.872-8.688c.264 1.008 2.232 1.752 2.016.24-.12-.96-2.136-1.488-2.016-.24zm21.216 9.312c-1.392-.12-1.08 2.28.216 2.088 1.152-.192.816-1.944-.216-2.088zm7.608-3.048c-1.32 0-1.008 2.544.048 2.232 1.008-.288 1.272-2.256-.048-2.232zm-33.096-6.36c.432.816 2.952 1.512 2.52 0-.312-1.104-2.424-1.392-2.52 0zm52.896 7.944c-1.512-.576-3.144-.936-4.752-.48-.72.216.336 2.4.384 2.712.096.552.144 1.128.192 1.68.096 1.512-3.024-.504-3.336-.648-1.44-.624-3.072-.888-4.584-1.2-1.632-.312-2.808-.816-3.936-2.04-.456-.48-.936-1.368-1.104-2.04-.072-.312.072-2.208-.336-2.208-.36 0-1.872.552-2.328.72-.864.336-1.704.72-2.544 1.08-1.896.84-3.84 1.488-5.76 2.28-1.608.672-3.144 1.44-4.824 1.896-1.776.504-7.008 1.992-7.968 2.088-.936.096-1.896.168-2.832.288-1.968.288-3.84.312-5.784.312-.984 0-1.968.096-2.928 0-.84-.096-6.336-.576-8.04-1.248-1.56-.6-3.384-.84-5.016-1.224-2.04-.456-10.632-2.76-11.544-3.072-1.752-.576-3.432-1.32-5.184-1.848-.6-.192-1.152-.864-.912-1.488.312-.792 1.008-.408 1.584-.24 1.68.528 3.36 1.344 5.064 1.776 1.656.408 3.192 1.056 4.848 1.44 1.872.456 3.744.72 5.616 1.248a102.577 102.577 0 0 0 11.4 2.472c7.56 1.2 15.144-.528 22.344-2.688 1.68-.504 8.256-3.096 9.768-3.888 3.456-1.824 7.632-2.184 11.496-2.136 2.448.048 5.352.864 7.56 1.92 1.104.528 6.36 3.36 3.456 4.536zm-6.312 1.416c-.384-1.032-.528-1.56-1.656-1.512-.984.024-2.28-.12-3.192-.576-.816-.408-1.728-.768-2.304-1.512-.576-.768-.696-2.448-1.896-2.256-.84.144-.144 2.352.096 2.784.576 1.128 1.584 1.512 2.736 1.8 1.08.264 2.16.504 3.24.768.528.12 1.104.216 1.632.408.36.144 1.272.84 1.344.096zm-3.816-5.88c-.6-.072-1.8-.312-2.328 0-.6.36.288 1.248.6 1.464 1.704 1.152 3.504 1.152 5.496 1.032 0 0 2.304-.048 2.16-.576-.048-.192-3-1.608-5.928-1.92zm-41.28-9.984c.696-.12 1.776-.576 2.4-.048 1.416 1.176-2.016 2.808-2.736 3.216-1.2.696-2.448 1.32-3.744 1.848-1.152.48-3.96 1.08-4.44 1.08-1.8.024-3.648.12-5.4-.24-1.776-.36-3.624-.72-5.304-1.272-3.48-1.128-6.912-2.376-10.344-3.576-3.264-1.152-6.648-1.704-9.936-2.76-3.624-1.152-7.368-1.08-11.136-.984-1.536.024-3.024.768-4.584.816-1.608.072-7.944 2.088-8.4 2.304-.696.312-3.816 1.8-4.728 2.16-1.416.576-3.048.84-4.44 1.512-2.616 1.248-7.752 2.952-9.24 3.432-1.488.48-3.024.648-4.536 1.032-1.488.36-3.168.816-4.68.816-1.92.024-3.624-.384-5.424-.936-.408-.12-4.128-1.92-2.352-2.64.624-.264 1.68.744 2.28.936.984.288 1.992.528 3 .72 1.776.36 3.648-.168 5.4-.504 2.16-.432 4.248-.984 6.384-1.536 3.528-.936 6.744-2.52 10.152-3.816 1.824-.696 3.552-1.536 5.352-2.304 1.728-.72 3.576-1.128 5.28-1.848 1.464-.624 3.264-.888 4.848-1.224 2.016-.408 3.984-.792 6.048-.96 5.232-.456 10.104.504 15.048 2.112 1.08.36 2.256.408 3.288.84 1.176.48 2.472.768 3.672 1.176a266.4 266.4 0 0 1 7.728 2.688c1.224.456 2.424.84 3.696 1.152.552.144 1.176.36 1.752.408.576.024.216-1.008.216-1.344.072-2.472 1.968-4.56 4.296-5.256 1.272-.384 2.616-.456 3.888-.792 1.272-.336 2.616-1.224 3.96-1.272 1.248-.048.36 2.04.192 2.472-.24.624-1.296 2.76-1.08 2.976.096.072.432-.072.624.024.672-.096 2.016-.216 3-.408zm-10.56 4.128c2.184.24 5.448.144 7.032-1.68-.48-.312-2.088-1.104-4.008-.96-1.44.096-4.2 1.704-4.2 2.088 0 .264.36.456 1.176.552zm-2.592-1.92c.312.192 1.248-.96 1.536-1.2.744-.6 1.8-.984 2.736-1.2 1.128-.24 2.184-.072 3.288.216.528.144.912-1.272 1.008-1.632.048-.288.312-.696.216-.792-.12-.12-3.384.672-4.896.96-1.968.384-3.432 1.824-3.888 3.648zm110.4.528c1.56.048 3.72-.24 4.08-.384.312-.12.624-.456.96-.48 1.008-.048.672.984.24 1.392-.792.768-1.728 1.392-2.52 2.16-.216.192-1.392 1.104-.768 1.392.744.336 1.44.984 2.112 1.44.48.336 1.464.744 1.752 1.296.144.288.408.36.288.768-.12.408-.6.792-1.008.552-1.44-.816-3.336-.096-4.8.288-1.752.456-3.456 1.032-5.16 1.608-1.392.48-3.264 1.248-4.752 1.176-.744-.048-1.44-.36-2.136-.504-.816-.192-1.56-.576-2.256-1.056-.624-.432-1.104-1.2-1.944-1.224-.768-.024-1.584-.216-2.352-.312-1.68-.216-3.312-.192-4.92-.744-.864-.288-1.776-.384-2.664-.528-.912-.168-4.224-1.008-4.944-1.296a17.641 17.641 0 0 0-3.168-.864c-1.632-.312-6.504-1.608-7.368-1.776-.576-.12-4.056-.696-4.728-.768-.792-.096-1.608-.192-2.376-.384-2.088-.504-4.032.048-6.12 0-1.512-.048-3.192.072-4.656.432-1.848.456-3.816.312-5.664.84-1.776.504-3.576 1.248-5.352 1.608-1.824.384-3.576 1.416-5.352 1.992-1.848.6-3.648 1.224-5.448 1.944-1.68.672-3.864 1.608-5.712 1.584-.792 0-1.632.36-2.424.432-.936.096-1.848.096-2.784.144-1.848.096-3.648.336-5.472-.024-.768-.168-1.704 0-2.496-.048-.936-.072-1.896-.192-2.832-.288-2.064-.192-3.936-.6-5.928-1.248-.816-.264-1.704-.24-2.544-.48-.984-.288-1.92-.624-2.928-.84-1.92-.432-3.792-1.008-5.64-1.68-3.456-1.248-7.008-2.112-10.464-3.312-.792-.288-1.584-.576-2.424-.792-.696-.192-1.464-.096-2.088-.576-.432-.336-1.488-.144-2.04-.36-.768-.288-1.728-.408-2.568-.48-1.728-.144-3.456-.456-5.184-.6-2.04-.192-4.128.072-6.168.264-1.68.168-3.312.264-4.992.672-1.776.408-3.456.984-5.208 1.464-1.728.456-3.504 1.176-5.112 1.944-1.248.6-2.472 1.08-3.696 1.704-1.2.624-2.424 1.176-3.6 1.896-.6.36-2.592 3.048-3.168 1.176-.36-1.128 2.616-2.496 3.384-2.928 1.752-1.032 3.552-2.064 5.424-2.856 3.48-1.488 7.032-3.048 10.728-3.888 3.888-.888 7.872-1.416 11.88-1.392 3.888.024 7.848 1.008 11.616 1.824.984.216 1.968.48 2.952.744.84.24 1.632.696 2.496.84.696.12 1.248.6 1.92.744.96.216 1.704.36 2.616.744 3.312 1.344 6.864 2.232 10.32 3.168 3.768 1.032 7.512 2.136 11.4 2.592 4.008.456 8.04.6 12.072.336 4.104-.264 7.848-1.8 11.664-3.168 3.624-1.32 7.2-2.808 10.896-3.84 3.768-1.056 7.464-1.464 11.328-1.704 4.176-.264 8.328-.384 12.432.576 1.392.312 2.808.552 4.224.816 1.2.216 2.352.696 3.528.888 1.296.216 2.592.648 3.864.96 1.44.336 2.976.624 4.392 1.056 2.424.744 4.872 1.416 7.416 1.656 1.176.096 1.68.312 1.992-.96.336-1.32.744-2.928 1.512-4.08 1.368-2.112 3.12-3.144 5.448-3.864 2.16-.672 4.536-.864 6.792-1.104 1.224-.12 2.712-.264 3.84-.816.432-.192 2.52-1.464 2.592-.24.048.912-1.128 1.944-1.632 2.592-.36.504-.816.96-1.152 1.488-.408.672.552.48.552.696zm-11.376 7.704c-.576.096-1.296.024-1.632.576-.12.168 1.104.624 1.152.624 1.344.552 2.496.72 3.912.432 2.856-.6 5.568-1.944 8.424-2.52.312-.072 1.512-.312 1.584-.744.048-.432-1.104-.912-1.416-.96-.504-.072-1.704-.288-3.096.48-2.616 1.464-5.952 2.112-8.928 2.112zm2.136-9.096c-2.568.576-4.752 1.2-6.024 3.744.216.192 2.544-1.488 3-1.704 1.272-.576 2.88-1.056 4.296-1.056 1.56 0 3.144.096 4.704.144.864.024.864-.096 1.392-.816.312-.456.936-1.008.84-1.632-.336.072-5.496.72-8.208 1.32zm.84 4.848c-.816.312-4.152 1.44-3.912 2.64.168.744 9.864-1.128 10.056-2.112.024-.072-4.152-1.272-6.144-.528zm-.504-2.328c-1.032.168-2.568.768-4.344 1.992-.6.408-1.104.96-1.512 1.584-.12.192-.744 2.088 0 1.464 1.296-1.08 2.184-2.424 3.744-3.24.984-.504 1.968-1.032 3.072-1.152 0 0 1.776-.168 4.44.336.576.264 1.248.192 1.848.288.816.12 1.272.432 2.04-.048 1.56-.936.432-.888-.768-.936-1.392-.048-3.648-.144-4.176-.216-2.472-.312-4.344-.072-4.344-.072z"/>
</svg>
